HIERARCHY
ROOT Hip
{
	OFFSET	0.0000	0.0000	0.0000
	CHANNELS 6 Xposition Yposition Zposition Xrotation Yrotation Zrotation
	JOINT LowerSpine
	{
		OFFSET	0.0000	9.9786	-5.3998
		CHANNELS 3 Xrotation Yrotation Zrotation
		JOINT MiddleSpine
		{
			OFFSET	0.0000	9.1062	0.4757
			CHANNELS 3 Xrotation Yrotation Zrotation
			JOINT Chest
			{
				OFFSET	0.0000	11.2679	-2.5081
				CHANNELS 3 Xrotation Yrotation Zrotation
				JOINT Neck
				{
					OFFSET	0.0000	25.3918	-0.5281
					CHANNELS 3 Xrotation Yrotation Zrotation
					JOINT Head
					{
						OFFSET	0.0000	14.3390	3.9002
						CHANNELS 3 Xrotation Yrotation Zrotation
						End Site
						{
							OFFSET	0.0001	20.0354	0.5981
						}
					}
				}
				JOINT LClavicle
				{
					OFFSET	2.5635	24.5043	8.3953
					CHANNELS 3 Xrotation Yrotation Zrotation
					JOINT LShoulder
					{
						OFFSET	14.9764	3.5148	-5.6873
						CHANNELS 3 Xrotation Yrotation Zrotation
						JOINT LForearm
						{
							OFFSET	31.8128	-0.1130	-0.2757
							CHANNELS 3 Xrotation Yrotation Zrotation
							JOINT LHand
							{
								OFFSET	26.5386	0.0770	-0.1589
								CHANNELS 3 Xrotation Yrotation Zrotation
								JOINT LFinger1
								{
									OFFSET	10.2856	0.8995	2.8568
									CHANNELS 3 Xrotation Yrotation Zrotation
									JOINT LFinger11
									{
										OFFSET	3.8473	-0.9382	0.6779
										CHANNELS 3 Xrotation Yrotation Zrotation
										JOINT LFinger12
										{
											OFFSET	2.6265	-0.6407	0.4630
											CHANNELS 3 Xrotation Yrotation Zrotation
											End Site
											{
												OFFSET	1.8690	-0.5579	0.3032
											}
										}
									}
								}
								JOINT LFinger2
								{
									OFFSET	10.4391	1.0388	0.2487
									CHANNELS 3 Xrotation Yrotation Zrotation
									JOINT LFinger21
									{
										OFFSET	4.7570	0.0133	-0.0281
										CHANNELS 3 Xrotation Yrotation Zrotation
										JOINT LFinger22
										{
											OFFSET	2.6367	0.0080	-0.0160
											CHANNELS 3 Xrotation Yrotation Zrotation
											End Site
											{
												OFFSET	2.3683	-0.1672	0.0032
											}
										}
									}
								}
								JOINT LFinger3
								{
									OFFSET	9.8932	0.6931	-2.3405
									CHANNELS 3 Xrotation Yrotation Zrotation
									JOINT LFinger31
									{
										OFFSET	4.3165	-0.2186	-0.2702
										CHANNELS 3 Xrotation Yrotation Zrotation
										JOINT LFinger32
										{
											OFFSET	2.4597	-0.1237	-0.1546
											CHANNELS 3 Xrotation Yrotation Zrotation
											End Site
											{
												OFFSET	2.1748	-0.2674	-0.1028
											}
										}
									}
								}
								JOINT LFinger4
								{
									OFFSET	9.1805	-0.6977	-4.0422
									CHANNELS 3 Xrotation Yrotation Zrotation
									JOINT LFinger41
									{
										OFFSET	2.6551	-0.5537	-0.7329
										CHANNELS 3 Xrotation Yrotation Zrotation
										JOINT LFinger42
										{
											OFFSET	1.9469	-0.4055	-0.5378
											CHANNELS 3 Xrotation Yrotation Zrotation
											End Site
											{
												OFFSET	1.7281	-0.4748	-0.3965
											}
										}
									}
								}
								JOINT LFinger0
								{
									OFFSET	2.1276	-1.6104	1.6129
									CHANNELS 3 Xrotation Yrotation Zrotation
									JOINT LFinger01
									{
										OFFSET	3.9614	-1.3011	2.9868
										CHANNELS 3 Xrotation Yrotation Zrotation
										JOINT LFinger02
										{
											OFFSET	2.6086	-0.9334	1.8794
											CHANNELS 3 Xrotation Yrotation Zrotation
											End Site
											{
												OFFSET	1.9183	-0.6603	1.3135
											}
										}
									}
								}
							}
						}
					}
				}
				JOINT RClavicle
				{
					OFFSET	-2.5635	24.5043	8.3953
					CHANNELS 3 Xrotation Yrotation Zrotation
					JOINT RShoulder
					{
						OFFSET	-14.9790	3.5154	-5.6882
						CHANNELS 3 Xrotation Yrotation Zrotation
						JOINT RForearm
						{
							OFFSET	-31.8128	-0.1130	-0.2757
							CHANNELS 3 Xrotation Yrotation Zrotation
							JOINT RHand
							{
								OFFSET	-26.5386	0.0770	-0.1589
								CHANNELS 3 Xrotation Yrotation Zrotation
								JOINT RFinger1
								{
									OFFSET	-10.2856	0.8995	2.8568
									CHANNELS 3 Xrotation Yrotation Zrotation
									JOINT RFinger11
									{
										OFFSET	-3.8473	-0.9382	0.6779
										CHANNELS 3 Xrotation Yrotation Zrotation
										JOINT RFinger12
										{
											OFFSET	-2.6265	-0.6407	0.4630
											CHANNELS 3 Xrotation Yrotation Zrotation
											End Site
											{
												OFFSET	-1.8690	-0.5579	0.3032
											}
										}
									}
								}
								JOINT RFinger2
								{
									OFFSET	-10.4391	1.0388	0.2487
									CHANNELS 3 Xrotation Yrotation Zrotation
									JOINT RFinger21
									{
										OFFSET	-4.7570	0.0133	-0.0281
										CHANNELS 3 Xrotation Yrotation Zrotation
										JOINT RFinger22
										{
											OFFSET	-2.6367	0.0080	-0.0160
											CHANNELS 3 Xrotation Yrotation Zrotation
											End Site
											{
												OFFSET	-2.3683	-0.1672	0.0032
											}
										}
									}
								}
								JOINT RFinger3
								{
									OFFSET	-9.8932	0.6931	-2.3405
									CHANNELS 3 Xrotation Yrotation Zrotation
									JOINT RFinger31
									{
										OFFSET	-4.3165	-0.2185	-0.2702
										CHANNELS 3 Xrotation Yrotation Zrotation
										JOINT RFinger32
										{
											OFFSET	-2.4597	-0.1237	-0.1546
											CHANNELS 3 Xrotation Yrotation Zrotation
											End Site
											{
												OFFSET	-2.1748	-0.2674	-0.1028
											}
										}
									}
								}
								JOINT RFinger4
								{
									OFFSET	-9.1805	-0.6977	-4.0422
									CHANNELS 3 Xrotation Yrotation Zrotation
									JOINT RFinger41
									{
										OFFSET	-2.6551	-0.5537	-0.7329
										CHANNELS 3 Xrotation Yrotation Zrotation
										JOINT RFinger42
										{
											OFFSET	-1.9469	-0.4055	-0.5378
											CHANNELS 3 Xrotation Yrotation Zrotation
											End Site
											{
												OFFSET	-1.7281	-0.4748	-0.3965
											}
										}
									}
								}
								JOINT RFinger0
								{
									OFFSET	-2.1276	-1.6104	1.6130
									CHANNELS 3 Xrotation Yrotation Zrotation
									JOINT RFinger01
									{
										OFFSET	-3.9614	-1.3011	2.9868
										CHANNELS 3 Xrotation Yrotation Zrotation
										JOINT RFinger02
										{
											OFFSET	-2.6086	-0.9334	1.8794
											CHANNELS 3 Xrotation Yrotation Zrotation
											End Site
											{
												OFFSET	-1.9183	-0.6603	1.3135
											}
										}
									}
								}
							}
						}
					}
				}
			}
		}
	}
	JOINT RThigh
	{
		OFFSET	-10.6746	4.5106	-0.8799
		CHANNELS 3 Xrotation Yrotation Zrotation
		JOINT RShin
		{
			OFFSET	-0.8542	-46.4297	0.0000
			CHANNELS 3 Xrotation Yrotation Zrotation
			JOINT RFoot
			{
				OFFSET	0.0000	-45.5911	0.0000
				CHANNELS 3 Xrotation Yrotation Zrotation
				JOINT RToe
				{
					OFFSET	0.0000	-5.0109	10.4784
					CHANNELS 3 Xrotation Yrotation Zrotation
					End Site
					{
						OFFSET	0.0000	0.0000	7.0295
					}
				}
			}
		}
	}
	JOINT LThigh
	{
		OFFSET	10.6745	4.5109	-0.8799
		CHANNELS 3 Xrotation Yrotation Zrotation
		JOINT LShin
		{
			OFFSET	0.8542	-46.4301	0.0000
			CHANNELS 3 Xrotation Yrotation Zrotation
			JOINT LFoot
			{
				OFFSET	0.0000	-45.5911	0.0000
				CHANNELS 3 Xrotation Yrotation Zrotation
				JOINT LToe
				{
					OFFSET	0.0000	-5.0109	10.4784
					CHANNELS 3 Xrotation Yrotation Zrotation
					End Site
					{
						OFFSET	0.0000	0.0000	7.0295
					}
				}
			}
		}
	}
}
MOTION
Frames:	6
Frame Time: 0.0333333000
	-0.0244	97.0775	2.8199	-9.306734	-0.000002	-3.034521	0.000000	0.000000	0.000000	4.369669	0.038353	0.415526	14.565850	0.248384	1.362625	0.000000	0.000000	0.000000	0.000000	0.000000	0.000000	0.000000	0.000000	-15.371170	9.149941	-18.296940	-60.026650	-7.654229	-33.020880	0.010792	0.000000	0.000000	0.000000	0.000000	0.000000	0.000000	0.000000	0.000000	0.000000	0.000000	0.000000	0.000000	0.000000	0.000000	0.000000	0.000000	0.000000	0.000000	0.000000	0.000000	0.000000	0.000000	0.000000	0.000000	0.000000	0.000000	0.000000	0.000000	0.000000	0.000000	0.000000	0.000000	0.000000	0.000000	0.000000	0.000000	0.000000	0.000000	0.000000	0.000000	0.000000	0.000000	0.000000	0.000000	0.000000	0.000000	0.000000	0.000000	0.000000	0.000000	15.320280	6.772939	15.091630	60.359490	-11.681680	32.964900	-0.037889	0.000000	0.000000	0.000000	0.000000	0.000000	0.000000	0.000000	0.000000	0.000000	0.000000	0.000000	0.000000	0.000000	0.000000	0.000000	0.000000	0.000000	0.000000	0.000000	0.000000	0.000000	0.000000	0.000000	0.000000	0.000000	0.000000	0.000000	0.000000	0.000000	0.000000	0.000000	0.000000	0.000000	0.000000	0.000000	0.000000	0.000000	0.000000	0.000000	0.000000	0.000000	0.000000	0.000000	0.000000	0.000000	0.000000	0.000000	0.000000	11.554120	-0.028867	2.017503	3.875069	0.267615	0.073495	-0.071487	-0.911019	-0.436232	0.000000	0.000000	0.000000	11.104130	0.620379	4.270667	1.413299	-0.745666	-1.336372	0.296405	-0.572054	-0.272165	0.000000	0.000000	0.000000
	0.0852	97.0271	2.9123	-9.601430	0.231986	-3.023657	0.000000	0.000000	0.000000	4.467107	-0.022364	0.377554	14.902120	0.031134	1.240651	0.000000	0.000000	0.000000	0.000000	0.000000	0.000000	0.000000	0.000000	-15.289450	9.142295	-17.844550	-59.933880	-7.885070	-34.151620	0.017145	0.000000	0.000000	0.000000	0.000000	0.000000	0.000000	0.000000	0.000000	0.000000	0.000000	0.000000	0.000000	0.000000	0.000000	0.000000	0.000000	0.000000	0.000000	0.000000	0.000000	0.000000	0.000000	0.000000	0.000000	0.000000	0.000000	0.000000	0.000000	0.000000	0.000000	0.000000	0.000000	0.000000	0.000000	0.000000	0.000000	0.000000	0.000000	0.000000	0.000000	0.000000	0.000000	0.000000	0.000000	0.000000	0.000000	0.000000	0.000000	0.000000	0.000000	15.337140	6.638357	15.337420	60.503660	-11.707750	33.133450	-0.038627	0.000000	0.000000	0.000000	0.000000	0.000000	0.000000	0.000000	0.000000	0.000000	0.000000	0.000000	0.000000	0.000000	0.000000	0.000000	0.000000	0.000000	0.000000	0.000000	0.000000	0.000000	0.000000	0.000000	0.000000	0.000000	0.000000	0.000000	0.000000	0.000000	0.000000	0.000000	0.000000	0.000000	0.000000	0.000000	0.000000	0.000000	0.000000	0.000000	0.000000	0.000000	0.000000	0.000000	0.000000	0.000000	0.000000	0.000000	0.000000	11.938380	-0.044676	1.951201	3.831909	0.370256	0.303636	-0.381927	-1.368602	-0.660100	0.000000	0.000000	0.000000	11.242930	0.624387	4.229146	1.611812	-0.999599	-0.919713	0.162581	-0.561293	-0.267389	0.000000	0.000000	0.000000
	0.1459	97.0160	2.9415	-9.707473	0.274207	-2.976155	0.000000	0.000000	0.000000	4.504844	-0.044567	0.353366	15.016840	-0.038697	1.182772	0.000000	0.000000	0.000000	0.000000	0.000000	0.000000	0.000000	0.000000	-15.260220	9.032629	-17.605510	-59.998670	-8.140944	-34.470640	0.012918	0.000000	0.000000	0.000000	0.000000	0.000000	0.000000	0.000000	0.000000	0.000000	0.000000	0.000000	0.000000	0.000000	0.000000	0.000000	0.000000	0.000000	0.000000	0.000000	0.000000	0.000000	0.000000	0.000000	0.000000	0.000000	0.000000	0.000000	0.000000	0.000000	0.000000	0.000000	0.000000	0.000000	0.000000	0.000000	0.000000	0.000000	0.000000	0.000000	0.000000	0.000000	0.000000	0.000000	0.000000	0.000000	0.000000	0.000000	0.000000	0.000000	0.000000	15.339510	6.649674	15.432490	60.512000	-11.645810	33.345350	-0.038121	0.000000	0.000000	0.000000	0.000000	0.000000	0.000000	0.000000	0.000000	0.000000	0.000000	0.000000	0.000000	0.000000	0.000000	0.000000	0.000000	0.000000	0.000000	0.000000	0.000000	0.000000	0.000000	0.000000	0.000000	0.000000	0.000000	0.000000	0.000000	0.000000	0.000000	0.000000	0.000000	0.000000	0.000000	0.000000	0.000000	0.000000	0.000000	0.000000	0.000000	0.000000	0.000000	0.000000	0.000000	0.000000	0.000000	0.000000	0.000000	12.046390	-0.056693	1.882342	3.866250	0.393898	0.377817	-0.530591	-1.549591	-0.749908	0.000000	0.000000	0.000000	11.281360	0.621005	4.173527	1.631375	-1.053050	-0.754144	0.159901	-0.635959	-0.303002	0.000000	0.000000	0.000000
	0.2302	97.0146	2.9533	-9.739378	0.305934	-2.925343	0.000000	0.000000	0.000000	4.516717	-0.051844	0.334226	15.047180	-0.061302	1.136408	0.000000	0.000000	0.000000	0.000000	0.000000	0.000000	0.000000	0.000000	-15.252780	8.968016	-17.625860	-60.019060	-8.192868	-34.426930	0.013342	0.000000	0.000000	0.000000	0.000000	0.000000	0.000000	0.000000	0.000000	0.000000	0.000000	0.000000	0.000000	0.000000	0.000000	0.000000	0.000000	0.000000	0.000000	0.000000	0.000000	0.000000	0.000000	0.000000	0.000000	0.000000	0.000000	0.000000	0.000000	0.000000	0.000000	0.000000	0.000000	0.000000	0.000000	0.000000	0.000000	0.000000	0.000000	0.000000	0.000000	0.000000	0.000000	0.000000	0.000000	0.000000	0.000000	0.000000	0.000000	0.000000	0.000000	15.338360	6.708777	15.416850	60.471810	-11.589550	33.486230	-0.037531	0.000000	0.000000	0.000000	0.000000	0.000000	0.000000	0.000000	0.000000	0.000000	0.000000	0.000000	0.000000	0.000000	0.000000	0.000000	0.000000	0.000000	0.000000	0.000000	0.000000	0.000000	0.000000	0.000000	0.000000	0.000000	0.000000	0.000000	0.000000	0.000000	0.000000	0.000000	0.000000	0.000000	0.000000	0.000000	0.000000	0.000000	0.000000	0.000000	0.000000	0.000000	0.000000	0.000000	0.000000	0.000000	0.000000	0.000000	0.000000	12.082140	-0.074243	1.747868	3.858756	0.392757	0.424495	-0.629576	-1.619665	-0.785545	0.000000	0.000000	0.000000	11.292510	0.607636	4.032129	1.596807	-1.041425	-0.618135	0.238471	-0.794669	-0.377991	0.000000	0.000000	0.000000
	0.3327	97.0121	2.9672	-9.777033	0.347004	-2.855139	0.000000	0.000000	0.000000	4.520055	-0.053574	0.328454	15.076850	-0.080585	1.086733	0.000000	0.000000	0.000000	0.000000	0.000000	0.000000	0.000000	0.000000	-15.225480	8.917577	-17.716760	-59.995100	-8.177839	-34.350790	0.013395	0.000000	0.000000	0.000000	0.000000	0.000000	0.000000	0.000000	0.000000	0.000000	0.000000	0.000000	0.000000	0.000000	0.000000	0.000000	0.000000	0.000000	0.000000	0.000000	0.000000	0.000000	0.000000	0.000000	0.000000	0.000000	0.000000	0.000000	0.000000	0.000000	0.000000	0.000000	0.000000	0.000000	0.000000	0.000000	0.000000	0.000000	0.000000	0.000000	0.000000	0.000000	0.000000	0.000000	0.000000	0.000000	0.000000	0.000000	0.000000	0.000000	0.000000	15.336110	6.762625	15.345240	60.446850	-11.575960	33.649910	-0.037127	0.000000	0.000000	0.000000	0.000000	0.000000	0.000000	0.000000	0.000000	0.000000	0.000000	0.000000	0.000000	0.000000	0.000000	0.000000	0.000000	0.000000	0.000000	0.000000	0.000000	0.000000	0.000000	0.000000	0.000000	0.000000	0.000000	0.000000	0.000000	0.000000	0.000000	0.000000	0.000000	0.000000	0.000000	0.000000	0.000000	0.000000	0.000000	0.000000	0.000000	0.000000	0.000000	0.000000	0.000000	0.000000	0.000000	0.000000	0.000000	12.136510	-0.095852	1.578689	3.832019	0.390772	0.499538	-0.738491	-1.701520	-0.827256	0.000000	0.000000	0.000000	11.295130	0.591616	3.868824	1.579834	-1.033209	-0.477357	0.312892	-0.976455	-0.463732	0.000000	0.000000	0.000000
	0.3706	97.0149	2.9818	-9.816158	0.369393	-2.828397	0.000000	0.000000	0.000000	4.530910	-0.057949	0.308240	15.105600	-0.095560	1.033398	0.000000	0.000000	0.000000	0.000000	0.000000	0.000000	0.000000	0.000000	-15.216950	8.900755	-17.742630	-59.945960	-8.161902	-34.343740	0.013259	0.000000	0.000000	0.000000	0.000000	0.000000	0.000000	0.000000	0.000000	0.000000	0.000000	0.000000	0.000000	0.000000	0.000000	0.000000	0.000000	0.000000	0.000000	0.000000	0.000000	0.000000	0.000000	0.000000	0.000000	0.000000	0.000000	0.000000	0.000000	0.000000	0.000000	0.000000	0.000000	0.000000	0.000000	0.000000	0.000000	0.000000	0.000000	0.000000	0.000000	0.000000	0.000000	0.000000	0.000000	0.000000	0.000000	0.000000	0.000000	0.000000	0.000000	15.334540	6.814144	15.349270	60.470500	-11.537400	33.776470	-0.036608	0.000000	0.000000	0.000000	0.000000	0.000000	0.000000	0.000000	0.000000	0.000000	0.000000	0.000000	0.000000	0.000000	0.000000	0.000000	0.000000	0.000000	0.000000	0.000000	0.000000	0.000000	0.000000	0.000000	0.000000	0.000000	0.000000	0.000000	0.000000	0.000000	0.000000	0.000000	0.000000	0.000000	0.000000	0.000000	0.000000	0.000000	0.000000	0.000000	0.000000	0.000000	0.000000	0.000000	0.000000	0.000000	0.000000	0.000000	0.000000	12.208850	-0.106994	1.512462	3.753412	0.385053	0.514610	-0.753248	-1.747783	-0.850012	0.000000	0.000000	0.000000	11.311040	0.587183	3.815963	1.538383	-1.029465	-0.396716	0.394253	-1.172773	-0.555849	0.000000	0.000000	0.000000
